<?xml version="1.0" encoding="utf-8"?>
<!-- Generator: Adobe Illustrator 16.0.4, SVG Export Plug-In . SVG Version: 6.00 Build 0)  -->
<!DOCTYPE svg PUBLIC "-//W3C//DTD SVG 1.1//EN" "http://www.w3.org/Graphics/SVG/1.1/DTD/svg11.dtd">
<svg version="1.1" id="Layer_1" xmlns="http://www.w3.org/2000/svg" xmlns:xlink="http://www.w3.org/1999/xlink" x="0px" y="0px"
	 width="432px" height="216px" viewBox="0 0 432 216" enable-background="new 0 0 432 216" xml:space="preserve">
<g>
	<g>
		<g>
			<path fill="#FFFFFF" d="M56.99,56.447l-11.803-0.05l-18.285,0.002c-1.268,0-11.076,0.088-11.076,0.088l-0.178,14.177l-1.79,0.051
				l0.109-15.94l-0.064-6.547c6.236,0.269,28.753,0.445,52.122,0.445c27.25,0,44.806-0.243,51.695-0.425l-0.082,7.252l0.142,16.123
				l-1.853-0.019c0.01-1.316-0.302-6.666-0.286-7.189c0.006-0.193-0.392-7.376-0.445-7.915l-7.823-0.1L83.93,56.397l-8.984,0.03
				l0.014,99.448c0,0.142,0.166,6.525,0.202,7.85c0.901,0.113,9.589,0.65,11.161,0.652l0.613-0.005l0.001,2.708
				c-0.47,0-1.049,0.047-1.536,0.043c-4.932-0.051-12.9-0.579-18.563-0.579c-5.571,0-13.432,0.491-19.24,0.571
				c-0.157,0.003-1.351-0.021-1.794-0.045l-0.015-2.887c0.06,0.006,0.414-0.004,0.962-0.023c2.455-0.086,8.5-0.447,10.074-0.565
				l0.248-0.035l-0.007-8.513L56.99,56.447z"/>
		</g>
	</g>
	<g>
		<g>
			<path fill="#FFFFFF" d="M207.116,48.091c0,0,8.805,24.469,10.237,28.051c1.434,3.583,28.346,65.499,28.346,65.499
				s12.637-26.676,23.893-55.301c2.279-5.797,5.271-13.354,7.473-19.472c3.225-8.956,6.771-18.78,6.771-18.78h6.927
				c0,0,1.714,10.936,2.322,15.807c1.771,14.169,13.348,71.756,17.411,90.699c1.016,4.735,1.784,8.837,1.784,8.837
				c1.189,0.074,5.87,0.491,8.649,0.698c0.578,0.044,2.133,0.12,2.488,0.12l0.012,2.852c0,0-1.254,0.062-1.949,0.062
				c-6.205-0.035-15.881-0.533-21.846-0.533c-5.307,0-10.415,0.404-15.723,0.508c-0.9,0.018-1.812-0.021-2.736-0.021v-2.822l0,0
				c0.031-0.006,0.736-0.043,1.109-0.03c2.595-0.108,9.465-0.712,10.15-0.744c0.002-1.03-0.373-4.618-0.934-8.286
				c-0.385-2.587-1.045-7.008-1.742-11.363c-1.51-8.469-8.51-43.569-10.588-53.31c-0.342-1.599-0.553-2.494-0.553-2.494
				s-21.675,49.712-26.043,59.508c-0.429,0.961-0.73,1.637-0.831,1.863c-4.179,9.434-7.685,17.839-7.685,17.839l-6.164-0.024
				l-33.775-77.625l-0.801-1.805c0,0-2.945,14.553-7.197,35.084c-2.248,11.094-6.911,38.832-7.224,40.666
				c2.688,0.354,7.976,0.74,9.419,0.697c0.332,0,0.894,0.012,1.312,0.012l-0.004,2.808c-0.602,0.073-2.009,0.083-2.065,0.081
				c-5.098-0.096-8.772-0.441-14.272-0.441c-1.446,0-9.092,0.354-11.79,0.439c-1.124,0.045-2.712-0.07-3.014-0.059l0.003-2.778
				c0.262,0,0.797-0.102,1.135-0.111c2.439-0.095,6.189-0.433,9.37-0.805c0.257-1.364,3.007-15.04,3.882-19.884
				c3.375-16.031,13.325-69.594,14.574-76.814c1.091-7.801,2.362-17.501,2.477-18.573C202.562,48.188,207.116,48.091,207.116,48.091
				z"/>
		</g>
	</g>
	<g>
		<g>
			<path fill="#FFFFFF" d="M162.263,167.191c-4.576,0-12.347-0.68-18.174-0.68c-5.759,0-13.576,0.677-19.202,0.677
				c-0.479,0.006-1.324-0.091-1.784-0.091v-2.822l0,0c1.108-0.021,6.08-0.428,7.465-0.519c1.619-0.106,3.119-0.182,3.785-0.373
				c0,0,0.013-3.403,0.031-8.68c0.063-18.249,0.182-69.826-0.008-93.164c-0.02-2.462-0.037-8.703-0.037-9.606
				c-1.052-0.097-2.527-0.222-3.581-0.347c-1.321-0.062-6.758-0.525-7.686-0.574l0,0l-0.03-2.822c5.392,0,13.396,0.486,19.893,0.486
				c6.208,0,14.627-0.486,20.998-0.486l-0.012,2.942c-1.011,0.061-3.47,0.198-3.552,0.206c-1.857,0.16-7.057,0.685-8.333,0.766
				c0,1.759-0.001,5.042-0.002,9.081c-0.006,20.896-0.026,75.568-0.034,93.977c-0.001,2.407-0.002,4.632-0.002,5.968
				c0,1.407,0.008,2.252,0.024,2.304c0.033,0.104,3.291,0.378,4.043,0.423c1.435,0.143,7.355,0.381,7.536,0.418h0.395l-0.003,2.822
				C163.604,167.098,162.66,167.195,162.263,167.191z"/>
		</g>
	</g>
	<g>
		<g>
			<path fill="#FFFFFF" d="M356.205,56.711l-0.027,46.799l33.609,0.1c0.156,0,8.895-0.241,9.105-0.24
				c0.533,0.004,6.533-0.308,6.763-0.379c0,0,0.095-0.491,0.228-0.845c0.492-2.833,1.105-5.521,1.262-7.624
				c0,0,0.156-0.897,0.168-1.507l1.911-0.036c0.003,0.217,0.1,0.758,0.093,1.521c-0.027,2.82-0.254,8.68-0.246,12.516
				c0.014,5.533,0.18,10.521,0.215,13.021c0.027,0.713-0.027,1.854-0.027,1.854h-2.094l0,0c-0.034-0.262-0.074-0.538-0.119-0.827
				c-0.369-3.188-0.67-5.438-1.226-8.688c-0.017-0.166-0.132-0.75-0.171-1.123c-1.073-0.064-3.9-0.152-5.41-0.193
				c-0.654-0.019-8.845-0.072-18.062-0.083c-3.775-0.005-10.563,0.154-13.438,0.151c-3.372-0.003-8.938,0.188-12.568,0.307
				l0.031,42.438l0.146,5.467l20.402,0.318l29.055-0.029c0.137,0,6.652-0.23,8.692-0.197c0.429,0.008,1.302-0.058,1.302-0.058
				c0.189-1.372,0.426-4.15,0.664-6.801l0,0c0.026-0.31,0.75-7.35,0.75-9.243l1.791-0.019c0,1.791-0.383,24.024-0.383,24.024
				c-3.276,0-13.328-0.01-25.744-0.174c-7.521-0.1-15.912-0.096-24.189-0.204c-6.71-0.089-13.347-0.302-19.387-0.294
				c-8.61,0.01-17.041,0.517-20.312,0.52c-0.751,0.001-2.072-0.049-2.36-0.049v-2.794h0.6c2.022-0.014,7.96-0.326,11.056-0.841
				c0-0.561,0.204-7.484,0.204-7.627c0,0-0.013-87.871-0.013-91.81c0-4.249-0.087-11.324-0.084-11.95
				c-1.753-0.186-2.378-0.286-2.744-0.353c-1.861-0.235-5.528-0.521-7.487-0.647c-0.56,0.013-1.172-0.049-1.468-0.1
				c0,0-0.006-2.747-0.021-2.787c0.442,0.025,1.357-0.034,3.006-0.028c3.461,0.012,9.833,0.472,17.625,0.479
				c4.895,0.005,12.793-0.209,18.449-0.277c8.062,0,14.187-0.066,22-0.112c12.751-0.076,23.642-0.157,27.9-0.175
				c1.242-0.006,1.922-0.009,1.922-0.009c0,0.215-0.012,0.468-0.01,0.753c0.004,0.88-0.036,2.431-0.023,4.333
				c0.039,5.916,0.203,15.223,0.203,18.262l-1.789,0.006l-0.019-0.834c-0.181-2.075-0.571-7.935-1.064-12.868
				c-0.044-0.44-0.129-0.785-0.129-0.785c-1.065-0.032-5.426-0.158-5.503-0.221c-0.07-0.056-3.544-0.103-3.618-0.135
				c-0.032-0.014-11.438-0.078-23.194-0.086c-8.028-0.006-15.92,0.04-20.764,0.04C360.475,56.562,356.205,56.711,356.205,56.711z"/>
		</g>
	</g>
</g>
</svg>
