<?xml version="1.0" encoding="utf-8"?>
<!-- Generator: Adobe Illustrator 16.0.0, SVG Export Plug-In . SVG Version: 6.00 Build 0)  -->
<!DOCTYPE svg PUBLIC "-//W3C//DTD SVG 1.1//EN" "http://www.w3.org/Graphics/SVG/1.1/DTD/svg11.dtd">
<svg version="1.1" id="Layer_1" xmlns="http://www.w3.org/2000/svg" xmlns:xlink="http://www.w3.org/1999/xlink" x="0px" y="0px"
	 width="324px" height="108px" viewBox="0 0 324 108" enable-background="new 0 0 324 108" xml:space="preserve">
<path fill="#FFFFFF" d="M120.36,50.253c5.999-11.345,21.885-6.642,21.87,3.172c-0.021,14.377-0.023,16.463-0.023,16.463
	c-0.05,8.852,1.755,8.055,4.092,8.803c1.012,0.322,0.896,1.238-0.44,1.238c-1.826,0-3.456,0-3.456,0h-9.539c0,0-1.63,0-3.455,0
	c-1.452,0-1.287-0.922-0.392-1.238c2.401-0.85,4.286,0.275,4.173-8.803c0,0,0-13.334,0-15.42c0-2.739-0.739-4.694-2.761-5.933
	c-2.021-1.239-4.451-0.941-6.259,0.196c-1.996,1.254-3.666,4.132-3.665,6.994l-0.005,0.196c-0.02,12.86-0.021,13.979-0.021,13.979
	c-0.049,8.852,1.754,8.055,4.091,8.803c1.014,0.324,0.896,1.238-0.439,1.238c-1.825,0-3.455,0-3.455,0h-9.541c0,0-1.63,0-3.455,0
	c-1.451,0-1.288-0.922-0.392-1.238c2.4-0.848,4.288,0.277,4.172-8.803c0,0,0-13.398,0-15.485c0-2.739-0.738-4.695-2.759-5.935
	c-2.021-1.238-4.434-0.913-6.26,0.196c-1.826,1.108-3.741,4.239-3.741,7.563c0,1.371,0,13.66,0,13.66
	c-0.048,8.852,1.886,8.055,4.223,8.803c1.012,0.324,0.896,1.238-0.44,1.238c-1.826,0-3.456,0-3.456,0h-9.539c0,0-1.5,0-3.326,0
	c-1.45,0-1.287-0.922-0.391-1.238c2.401-0.848,4.158,0.277,4.043-8.803c0,0,0-13.725,0-15.029c0-1.304-0.479-4.538-4.39-4.629
	c-1.402-0.033-1.304-1.271-0.065-1.304c1.5-0.039,5.922,0.401,11.801-4.695c0.978-0.847,1.536-0.823,1.536,0.417
	c0,1.37,0,5.575,0,5.575c5.434-10.277,18.802-7.348,21.364,0.576L120.36,50.253z M78.517,44.576
	c-4.651,4.505-9.13,4.368-12.195,4.401c-1.043,0.01-0.881,1.01-0.326,1.01c2.705,0,4.694,2.217,4.694,5.836v14.115
	c0.114,9.078-1.771,7.955-4.172,8.801c-0.896,0.318-1.061,1.24,0.391,1.24c1.825,0,3.455,0,3.455,0h9.539c0,0,1.435,0,3.261,0
	c1.336,0,1.453-0.916,0.439-1.24c-2.336-0.744-4.075,0.049-4.025-8.801V45.016C79.578,44.363,79.28,43.837,78.517,44.576z
	 M58.335,66.223V28.667c8.411-0.782,18.452,3.213,20.017,13.497c0.164,1.084,1.238,0.75,1.238-0.196c0-0.717,0-15.713,0-15.713
	H52.858H26.125c0,0,0,14.997,0,15.713c0,0.946,1.073,1.28,1.239,0.196C28.928,31.88,38.97,27.885,47.381,28.667v41.208
	c0.163,8.932-2.757,8.1-4.956,8.865c-0.672,0.236-0.815,1.24,0.521,1.24c1.825,0,9.911,0,9.911,0l0.097-0.033c0,0,7.955,0,9.78,0
	c1.337,0,1.195-1.004,0.522-1.238c-2.199-0.768-5.118,0.066-4.956-8.867L58.335,66.223z M196.795,36.491v33.384
	c0.129,9.127-2.746,8.131-4.955,8.865c-0.705,0.236-0.914,1.221,0.52,1.24c1.826,0.025,8.869,0,8.869,0s8.086,0,9.91,0
	c1.109,0,1.455-0.938,0.521-1.271c-2.191-0.781-4.988,0.457-4.955-8.834V36.491l0.025-0.236c0.033-9.224,2.447-8.053,4.662-8.769
	c1.129-0.366,1.141-1.33-0.229-1.337c-1.824-0.008-9.91,0-9.91,0s-7.041-0.006-8.867,0c-1.5,0.008-1.123,1.073-0.295,1.304
	c2.371,0.662,4.793-0.031,4.729,8.802L196.795,36.491z M232.854,48.711c1.826-1.108,4.238-1.434,6.26-0.195
	c2.02,1.239,2.76,3.194,2.76,5.932c0,2.089,0,15.485,0,15.485c0.115,9.078-1.771,7.957-4.174,8.803
	c-0.895,0.316-1.057,1.238,0.393,1.238c1.824,0,3.455,0,3.455,0h9.539c0,0,1.631,0,3.457,0c1.336,0,1.453-0.914,0.439-1.238
	c-2.338-0.746-4.139,0.049-4.092-8.803c0,0,0.002-2.15,0.025-16.528c0.014-9.814-17.373-14.482-23.371-3.138c0,0,0-4.206,0-5.575
	c0-1.239-0.455-1.415-1.277-0.415c-4.51,5.488-10.563,4.608-12.063,4.695c-1.139,0.064-1.105,1.206,0.066,1.304
	c3.898,0.324,4.389,3.325,4.389,4.629s0,15.028,0,15.028c0.115,9.078-1.771,7.957-4.172,8.803c-0.895,0.316-1.059,1.238,0.391,1.238
	c1.826,0,3.455,0,3.455,0h9.541c0,0,1.629,0,3.455,0c1.336,0,1.453-0.914,0.441-1.238c-2.338-0.746-4.271,0.049-4.225-8.803
	c0,0,0-12.29,0-13.66C227.547,52.949,231.027,49.819,232.854,48.711z M282.348,49.301c0.479,0.898,0.152,1.827-0.127,2.451
	c-0.271,0.605-0.33,1.161-0.33,1.762c0,2.227,1.619,3.941,3.715,3.941s3.699-1.714,3.699-3.941c0-0.732-0.047-1.204-0.346-1.827
	l-0.232-0.433c-3.072-4.784-8.006-7.763-14.225-7.792c-9.186-0.045-17.805,8.195-17.805,18.458c0,10.262,6.803,18.395,16.881,18.676
	c7.379,0.205,13.846-2.988,17.037-10.797c0.545-1.578-0.729-2.17-1.607-0.379c-5.076,10.336-15.289,6.285-18.295,3.125
	c-2.588-2.725-4.422-6.191-4.678-11.437c-0.064-1.983,0.086-2.915,0.119-3.597c0.52-6.514,4.359-11.456,9.182-11.456
	c2.971,0,5.357,0.35,6.969,3.144L282.348,49.301z M290.342,76.523c0,1.986,1.609,3.596,3.596,3.596s3.596-1.609,3.596-3.596
	c0-1.988-1.609-3.596-3.596-3.596S290.342,74.535,290.342,76.523z M183.521,60.688c-0.73-9.58-8.568-17.024-18.168-17.024
	c-10.082,0-18.256,8.32-18.256,18.583c0,10.262,8.273,18.352,18.352,18.613c7.891,0.207,13.754-2.338,17.361-10.762
	c0.447-1.398-0.938-2.242-1.863-0.477c-5.779,11.02-16.572,7.031-19.576,3.871c-2.659-2.799-4.141-6.875-4.313-12.362l0.499,0.003
	h25.236C183.576,61.133,183.521,60.688,183.521,60.688z M157.182,58.525c0.063-7.402,3.607-12.266,8.554-12.266
	c4.904,0,8.584,3.904,8.508,12.272h-16.016L157.182,58.525z"/>
</svg>
